<svg width="130" height="30" viewBox="0 0 130 30" fill="none" xmlns="http://www.w3.org/2000/svg">
<g clip-path="url(#clip0_836_1925)">
<mask id="mask0_836_1925" style="mask-type:luminance" maskUnits="userSpaceOnUse" x="0" y="0" width="130" height="30">
<path d="M130 0H0V30H130V0Z" fill="white"/>
</mask>
<g mask="url(#mask0_836_1925)">
<path d="M14.2766 2.31238H0V3.77779H1.99583V28.5358L0 29.1089V30.0013H13.1982V29.1089L8.75845 28.5358V20.401H14.2766C19.2157 20.401 23.2198 16.3518 23.2198 11.3573C23.2198 6.36278 19.2157 2.31364 14.2766 2.31364V2.31238ZM8.6586 18.4849V3.8611C8.6586 3.8611 16.069 4.49977 16.069 11.173C16.069 17.8463 8.6586 18.4849 8.6586 18.4849Z" fill="white"/>
<path d="M32.6763 9.93738C27.4526 9.93738 23.2188 14.4283 23.2188 19.9694C23.2188 25.5105 27.4526 30.0014 32.6763 30.0014C37.8999 30.0014 42.1337 25.5105 42.1337 19.9694C42.1337 14.4283 37.8999 9.93738 32.6763 9.93738ZM30.482 22.7046L25.0699 17.2317C27.7759 14.4952 32.1633 14.4952 34.8693 17.2317L40.2813 22.7046C37.5752 25.441 33.188 25.441 30.482 22.7046Z" fill="white"/>
<path d="M49.9749 0V28.556L51.459 29.0231V30H42.5195V29.066L44.0273 28.599V3.957L42.5195 4.50227V2.94345L49.9749 0Z" fill="white"/>
<path d="M70.9248 20.1335L70.9273 20.131C71.0109 14.5167 66.7446 9.93738 61.4711 9.93738C56.1975 9.93738 52.0137 14.4283 52.0137 19.9694C52.0137 25.5105 56.2475 30.0014 61.4711 30.0014C65.3754 30.0014 68.7267 27.4909 70.1684 23.9087L69.3134 23.1451C68.1226 24.3656 66.3976 25.2252 64.6103 25.2252C61.5847 25.2252 59.0334 23.0744 58.2383 20.1347H70.9235L70.9248 20.1335ZM58.1472 18.6453V16.5097C58.1472 14.5583 59.2244 12.761 60.9618 11.8118L61.0817 11.8698C62.9514 12.7761 64.1359 14.6442 64.1359 16.6902V18.6453H58.1484H58.1472Z" fill="white"/>
<path d="M90.5741 28.556H90.4118V17.4676C90.4118 13.5371 87.2614 10.3513 83.3746 10.3513H83.2436L79.2606 14.4472V10.1456L71.457 12.6561V14.3664L73.534 13.7302V28.5674L72.0699 29.0672V30.0013H81.0093V29.0672L79.6114 28.5737V16.3102C79.6114 16.3102 84.6428 15.8797 84.6428 20.6357V28.5573H84.5754L83.0813 29.0685V30.0025H92.0207V29.0685L90.5728 28.5573L90.5741 28.556Z" fill="white"/>
<path d="M103.437 25.1393L101.931 26.0039C101.088 26.0039 100.417 25.7022 99.9134 25.0976C99.4104 24.4943 99.1594 23.5325 99.1594 22.2148V13.0095H103.947V11.38H99.2405V4.00122L90.6855 11.3813V13.0108H93.4154V23.6574C93.4154 25.8814 93.8696 27.4958 94.7795 28.498C95.6895 29.5014 97.1486 30.0013 99.1582 30.0013L104.128 26.3762L103.435 25.1405L103.437 25.1393Z" fill="white"/>
<path d="M123.813 25.9218L122.37 26.5151C122.156 26.2134 121.935 25.8612 121.846 25.5722C121.753 25.2832 121.708 24.8919 121.708 24.3984L121.799 22.9153L122.258 17.354L122.304 16.5298C122.304 14.3323 121.616 12.7192 120.243 11.6893C118.869 10.6593 117.098 10.1443 114.931 10.1443C112.764 10.1443 110.595 10.5974 108.244 11.5037L106.137 17.4361L107.374 17.8475L108.107 16.4465C108.594 16.2546 109.189 16.0969 109.893 15.9732C110.595 15.8495 111.266 15.7876 111.908 15.7876C113.343 15.7876 114.382 16.1385 115.022 16.8378C115.663 17.5383 115.852 18.5064 115.792 19.7421L115.776 21.5407L106.935 21.4499C106.924 21.4701 106.909 21.4953 106.894 21.5205C105.847 22.375 105.168 23.7206 105.168 25.2402C105.168 27.8227 107.12 29.9167 109.527 29.9167C109.557 29.9167 109.587 29.9142 109.617 29.9129L109.62 29.9167C110.445 29.9167 111.413 29.7236 112.528 29.3399C113.641 28.9549 114.665 28.4601 115.765 27.8555V28.2001C115.765 29.1935 116.561 29.9987 117.543 29.9987L124.276 27.1563L123.816 25.9193L123.813 25.9218ZM115.761 26.9518H115.36C113.507 26.9518 112.001 25.4371 111.993 23.5628L111.986 22.3801H115.761V26.9518Z" fill="white"/>
<path d="M127.98 7.8661L130.001 7.20092L127.888 6.97373L129.465 5.53482L127.445 6.19747L128.307 4.23349L126.727 5.66987L126.725 3.52161L125.858 5.48307L124.993 3.52161L124.991 5.66987L123.411 4.23349L124.273 6.19747L122.252 5.53482L123.83 6.97373L121.717 7.20092L123.736 7.8661L121.898 8.94276L124.011 8.71935L122.764 10.4587L124.605 9.38579L124.164 11.4887L125.415 9.75183L125.858 11.8522L126.303 9.75183L127.553 11.4887L127.113 9.38579L128.954 10.4587L127.707 8.71935L129.82 8.94276L127.98 7.8661Z" fill="white"/>
</g>
</g>
<defs>
<clipPath id="clip0_836_1925">
<rect width="130" height="30" fill="white"/>
</clipPath>
</defs>
</svg>
