<svg width="130" height="30" viewBox="0 0 130 30" fill="none" xmlns="http://www.w3.org/2000/svg">
<g clip-path="url(#clip0_436_200)">
<path d="M14.2766 2.31235H0V3.77776H1.99583V28.5358L0 29.1089V30.0013H13.1982V29.1089L8.75845 28.5358V20.401H14.2766C19.2157 20.401 23.2198 16.3518 23.2198 11.3573C23.2198 6.36275 19.2157 2.31361 14.2766 2.31361V2.31235ZM8.6586 18.4849V3.86107C8.6586 3.86107 16.069 4.49974 16.069 11.173C16.069 17.8463 8.6586 18.4849 8.6586 18.4849Z" fill="#24BF5E"/>
<path d="M32.6772 9.93732C27.4535 9.93732 23.2197 14.4282 23.2197 19.9693C23.2197 25.5104 27.4535 30.0013 32.6772 30.0013C37.9008 30.0013 42.1346 25.5104 42.1346 19.9693C42.1346 14.4282 37.9008 9.93732 32.6772 9.93732ZM30.4829 22.7045L25.0708 17.2316C27.7768 14.4951 32.1642 14.4951 34.8702 17.2316L40.2823 22.7045C37.5762 25.4409 33.1889 25.4409 30.4829 22.7045Z" fill="#24BF5E"/>
<path d="M49.9744 0V28.556L51.4585 29.0231V30H42.519V29.066L44.0268 28.599V3.957L42.519 4.50227V2.94345L49.9744 0Z" fill="#24BF5E"/>
<path d="M70.9253 20.1334L70.9278 20.1309C71.0114 14.5166 66.7451 9.93732 61.4716 9.93732C56.198 9.93732 52.0142 14.4282 52.0142 19.9693C52.0142 25.5104 56.248 30.0013 61.4716 30.0013C65.3759 30.0013 68.7272 27.4908 70.1689 23.9086L69.3139 23.145C68.1231 24.3655 66.3981 25.2251 64.6108 25.2251C61.5852 25.2251 59.0339 23.0743 58.2388 20.1346H70.924L70.9253 20.1334ZM58.1477 18.6452V16.5096C58.1477 14.5582 59.2249 12.7609 60.9623 11.8117L61.0822 11.8697C62.9519 12.776 64.1364 14.6441 64.1364 16.6901V18.6452H58.1489H58.1477Z" fill="#24BF5E"/>
<path d="M90.5741 28.556H90.4118V17.4676C90.4118 13.5371 87.2614 10.3513 83.3746 10.3513H83.2436L79.2606 14.4472V10.1456L71.457 12.6561V14.3664L73.534 13.7302V28.5674L72.0699 29.0672V30.0013H81.0093V29.0672L79.6114 28.5737V16.3102C79.6114 16.3102 84.6428 15.8797 84.6428 20.6357V28.5573H84.5754L83.0813 29.0685V30.0025H92.0207V29.0685L90.5728 28.5573L90.5741 28.556Z" fill="#24BF5E"/>
<path d="M103.437 25.1393L101.931 26.0039C101.088 26.0039 100.417 25.7022 99.9138 25.0976C99.4108 24.4943 99.1599 23.5325 99.1599 22.2148V13.0095H103.947V11.38H99.241V4.00119L90.686 11.3813V13.0108H93.4158V23.6574C93.4158 25.8814 93.8701 27.4958 94.78 28.498C95.69 29.5014 97.1491 30.0013 99.1587 30.0013L104.128 26.3762L103.435 25.1405L103.437 25.1393Z" fill="#24BF5E"/>
<path d="M123.812 25.9218L122.369 26.5151C122.155 26.2134 121.934 25.8612 121.845 25.5722C121.752 25.2832 121.707 24.8919 121.707 24.3984L121.798 22.9153L122.257 17.354L122.303 16.5298C122.303 14.3323 121.615 12.7192 120.242 11.6893C118.868 10.6593 117.097 10.1443 114.93 10.1443C112.763 10.1443 110.594 10.5974 108.243 11.5037L106.136 17.4361L107.373 17.8475L108.106 16.4465C108.593 16.2546 109.188 16.0969 109.892 15.9732C110.594 15.8495 111.265 15.7876 111.907 15.7876C113.342 15.7876 114.381 16.1385 115.021 16.8378C115.662 17.5383 115.851 18.5064 115.791 19.7421L115.775 21.5407L106.934 21.4499C106.923 21.4701 106.908 21.4953 106.893 21.5205C105.846 22.375 105.167 23.7206 105.167 25.2402C105.167 27.8227 107.119 29.9167 109.526 29.9167C109.556 29.9167 109.586 29.9142 109.616 29.9129L109.619 29.9167C110.444 29.9167 111.412 29.7236 112.527 29.3399C113.64 28.9549 114.664 28.4601 115.764 27.8555V28.2001C115.764 29.1935 116.56 29.9987 117.542 29.9987L124.275 27.1563L123.815 25.9193L123.812 25.9218ZM115.76 26.9518H115.359C113.506 26.9518 112 25.4371 111.992 23.5628L111.985 22.3801H115.76V26.9518Z" fill="#24BF5E"/>
<path d="M127.979 7.86604L130 7.20086L127.887 6.97367L129.464 5.53476L127.444 6.19741L128.306 4.23343L126.726 5.66981L126.724 3.52155L125.857 5.48301L124.992 3.52155L124.99 5.66981L123.41 4.23343L124.272 6.19741L122.251 5.53476L123.829 6.97367L121.716 7.20086L123.735 7.86604L121.897 8.9427L124.01 8.71929L122.763 10.4586L124.604 9.38573L124.163 11.4886L125.414 9.75177L125.857 11.8521L126.302 9.75177L127.552 11.4886L127.112 9.38573L128.953 10.4586L127.706 8.71929L129.819 8.9427L127.979 7.86604Z" fill="#24BF5E"/>
</g>
<defs>
<clipPath id="clip0_436_200">
<rect width="130" height="30" fill="white"/>
</clipPath>
</defs>
</svg>
